<svg xmlns="http://www.w3.org/2000/svg" viewBox="0 0 1060 695" fill="white">
<!-- Saturno Movement Logo — Machine-traced from planet-primary-blue.png via potrace
     This is a single combined path (planet + ring + silhouette cutout).
     The silhouette is a negative space (even-odd fill rule).
-->
<g transform="translate(0,695) scale(0.1,-0.1)">
<path d="M9360 6079 c-119 -14 -331 -57 -520 -105 -362 -93 -800 -256 -1340
-499 -327 -148 -360 -156 -446 -112 -27 14 -74 47 -104 73 -347 300 -783 500
-1245 570 -168 26 -570 26 -735 1 -572 -89 -1046 -325 -1441 -717 -401 -399
-661 -922 -735 -1480 -22 -165 -14 -505 15 -698 49 -325 178 -680 339 -939
l51 -83 -77 -36 c-504 -236 -830 -377 -982 -425 -89 -29 -120 -34 -202 -34
-93 0 -99 1 -125 28 -40 39 -37 103 8 189 43 81 141 179 423 423 121 105 266
235 323 290 88 85 103 105 103 131 0 42 -42 84 -85 84 -35 0 -176 -91 -315
-203 -291 -235 -1018 -911 -1165 -1084 -145 -169 -214 -296 -215 -390 0 -47 4
-58 36 -92 77 -86 232 -96 549 -35 493 95 969 260 1675 579 259 117 280 125
338 125 62 0 111 -26 217 -115 289 -243 646 -422 1010 -508 332 -78 713 -88
1055 -26 1089 195 1935 1099 2071 2213 16 129 7 493 -16 646 -22 146 -83 388
-130 516 -49 131 -138 317 -208 432 l-56 93 107 50 c59 28 206 96 326 151 665
302 870 357 959 257 26 -28 28 -36 22 -78 -18 -122 -95 -210 -460 -526 -126
-110 -274 -242 -327 -295 -112 -109 -120 -130 -68 -182 26 -26 36 -30 65 -25
104 17 588 421 1130 944 421 405 554 580 555 728 0 92 -59 144 -186 165 -67
11 -88 11 -194 -1z m-3242 -869 c42 -26 58 -65 71 -171 23 -182 12 -307 -55
-644 -58 -288 -54 -350 46 -671 49 -156 50 -185 11 -225 -16 -16 -36 -29 -43
-29 -19 0 -59 44 -92 102 -14 26 -52 69 -83 95 -145 122 -183 167 -183 216 0
8 18 42 40 76 27 42 40 73 40 97 0 19 -16 107 -35 195 -47 211 -51 256 -31
358 8 47 14 86 12 88 -2 2 -53 -19 -112 -48 -141 -68 -198 -124 -273 -269 -91
-174 -181 -249 -346 -285 -88 -20 -110 -39 -102 -90 11 -67 56 -145 198 -345
l142 -200 42 58 c93 128 198 192 314 192 83 0 165 -44 264 -141 67 -66 77 -81
77 -111 0 -22 -7 -42 -20 -53 -10 -9 -26 -38 -35 -64 -8 -25 -24 -57 -35 -71
-11 -14 -27 -60 -37 -103 l-17 -79 -32 6 c-29 6 -34 3 -64 -43 -17 -28 -47
-64 -67 -81 -41 -36 -61 -34 -113 15 -57 54 -74 59 -141 45 -58 -12 -197 -10
-231 5 -13 5 -22 -4 -42 -44 -24 -47 -26 -59 -26 -199 0 -118 4 -165 21 -233
36 -139 19 -262 -75 -569 -40 -129 -42 -149 -21 -190 18 -35 54 -55 115 -65
60 -9 168 -44 176 -57 5 -7 -53 -9 -189 -6 -169 4 -199 7 -216 22 -24 22 -23
18 -62 266 -33 216 -32 195 -13 505 5 91 3 108 -21 190 -24 78 -28 111 -31
244 l-4 155 -93 95 c-216 222 -322 415 -334 607 -9 141 9 194 181 537 84 167
166 323 183 348 71 103 268 265 468 385 208 125 481 200 740 203 84 1 105 -2
133 -19z"/>
</g>
</svg>
